<svg xmlns="http://www.w3.org/2000/svg" viewBox="0 0 32 32">
  <defs>
    <linearGradient id="g" x1="0" y1="0" x2="0" y2="1">
      <stop offset="0%" stop-color="#E5C788"/>
      <stop offset="100%" stop-color="#A07840"/>
    </linearGradient>
  </defs>
  <rect width="32" height="32" rx="6" fill="#1A0F08"/>
  <g transform="translate(16 16)" fill="url(#g)">
    <path d="M 0 -13 L 1.6 -3.2 L 0 0 L -1.6 -3.2 Z"/>
    <path d="M 0 -13 L 1.6 -3.2 L 0 0 L -1.6 -3.2 Z" transform="rotate(45)"/>
    <path d="M 0 -13 L 1.6 -3.2 L 0 0 L -1.6 -3.2 Z" transform="rotate(90)"/>
    <path d="M 0 -13 L 1.6 -3.2 L 0 0 L -1.6 -3.2 Z" transform="rotate(135)"/>
    <path d="M 0 -13 L 1.6 -3.2 L 0 0 L -1.6 -3.2 Z" transform="rotate(180)"/>
    <path d="M 0 -13 L 1.6 -3.2 L 0 0 L -1.6 -3.2 Z" transform="rotate(225)"/>
    <path d="M 0 -13 L 1.6 -3.2 L 0 0 L -1.6 -3.2 Z" transform="rotate(270)"/>
    <path d="M 0 -13 L 1.6 -3.2 L 0 0 L -1.6 -3.2 Z" transform="rotate(315)"/>
  </g>
  <circle cx="16" cy="16" r="4" fill="#1A0F08" stroke="url(#g)" stroke-width="0.8"/>
</svg>
