<svg xmlns="http://www.w3.org/2000/svg" viewBox="0 0 33 33" shape-rendering="crispEdges" aria-label="QR vers lostchapter.vercel.app"><rect width="33" height="33" fill="#F2E6D0"/><path d="M2 2h7v1h-7zM10 2h1v1h-1zM12 2h1v1h-1zM15 2h3v1h-3zM19 2h1v1h-1zM24 2h7v1h-7zM2 3h1v1h-1zM8 3h1v1h-1zM13 3h2v1h-2zM17 3h1v1h-1zM19 3h1v1h-1zM22 3h1v1h-1zM24 3h1v1h-1zM30 3h1v1h-1zM2 4h1v1h-1zM4 4h3v1h-3zM8 4h1v1h-1zM10 4h2v1h-2zM14 4h2v1h-2zM19 4h3v1h-3zM24 4h1v1h-1zM26 4h3v1h-3zM30 4h1v1h-1zM2 5h1v1h-1zM4 5h3v1h-3zM8 5h1v1h-1zM11 5h4v1h-4zM17 5h4v1h-4zM24 5h1v1h-1zM26 5h3v1h-3zM30 5h1v1h-1zM2 6h1v1h-1zM4 6h3v1h-3zM8 6h1v1h-1zM12 6h2v1h-2zM17 6h4v1h-4zM24 6h1v1h-1zM26 6h3v1h-3zM30 6h1v1h-1zM2 7h1v1h-1zM8 7h1v1h-1zM10 7h3v1h-3zM14 7h3v1h-3zM18 7h2v1h-2zM24 7h1v1h-1zM30 7h1v1h-1zM2 8h7v1h-7zM10 8h1v1h-1zM12 8h1v1h-1zM14 8h1v1h-1zM16 8h1v1h-1zM18 8h1v1h-1zM20 8h1v1h-1zM22 8h1v1h-1zM24 8h7v1h-7zM12 9h4v1h-4zM20 9h3v1h-3zM2 10h1v1h-1zM4 10h1v1h-1zM8 10h2v1h-2zM12 10h1v1h-1zM14 10h2v1h-2zM17 10h2v1h-2zM21 10h1v1h-1zM25 10h1v1h-1zM28 10h1v1h-1zM30 10h1v1h-1zM2 11h1v1h-1zM4 11h1v1h-1zM9 11h1v1h-1zM18 11h1v1h-1zM21 11h2v1h-2zM24 11h2v1h-2zM29 11h2v1h-2zM2 12h2v1h-2zM5 12h2v1h-2zM8 12h2v1h-2zM12 12h2v1h-2zM15 12h2v1h-2zM18 12h2v1h-2zM21 12h8v1h-8zM30 12h1v1h-1zM2 13h2v1h-2zM5 13h3v1h-3zM13 13h2v1h-2zM16 13h3v1h-3zM20 13h6v1h-6zM27 13h1v1h-1zM2 14h1v1h-1zM4 14h2v1h-2zM7 14h2v1h-2zM10 14h1v1h-1zM12 14h5v1h-5zM22 14h1v1h-1zM24 14h1v1h-1zM30 14h1v1h-1zM2 15h1v1h-1zM4 15h4v1h-4zM11 15h1v1h-1zM13 15h4v1h-4zM19 15h1v1h-1zM21 15h1v1h-1zM24 15h2v1h-2zM29 15h2v1h-2zM3 16h3v1h-3zM8 16h1v1h-1zM10 16h1v1h-1zM12 16h2v1h-2zM17 16h1v1h-1zM19 16h1v1h-1zM21 16h3v1h-3zM30 16h1v1h-1zM3 17h1v1h-1zM5 17h1v1h-1zM15 17h1v1h-1zM21 17h1v1h-1zM3 18h1v1h-1zM7 18h2v1h-2zM10 18h1v1h-1zM15 18h1v1h-1zM17 18h2v1h-2zM20 18h2v1h-2zM24 18h1v1h-1zM30 18h1v1h-1zM3 19h2v1h-2zM6 19h1v1h-1zM10 19h1v1h-1zM13 19h2v1h-2zM18 19h2v1h-2zM21 19h2v1h-2zM24 19h2v1h-2zM28 19h3v1h-3zM2 20h4v1h-4zM8 20h2v1h-2zM11 20h3v1h-3zM15 20h2v1h-2zM18 20h1v1h-1zM21 20h1v1h-1zM23 20h2v1h-2zM27 20h1v1h-1zM30 20h1v1h-1zM4 21h2v1h-2zM10 21h2v1h-2zM13 21h1v1h-1zM16 21h3v1h-3zM22 21h2v1h-2zM25 21h2v1h-2zM2 22h2v1h-2zM6 22h7v1h-7zM15 22h2v1h-2zM18 22h1v1h-1zM21 22h7v1h-7zM29 22h1v1h-1zM10 23h2v1h-2zM13 23h1v1h-1zM15 23h2v1h-2zM22 23h1v1h-1zM26 23h3v1h-3zM30 23h1v1h-1zM2 24h7v1h-7zM10 24h3v1h-3zM17 24h1v1h-1zM19 24h2v1h-2zM22 24h1v1h-1zM24 24h1v1h-1zM26 24h1v1h-1zM30 24h1v1h-1zM2 25h1v1h-1zM8 25h1v1h-1zM11 25h2v1h-2zM14 25h2v1h-2zM17 25h2v1h-2zM20 25h3v1h-3zM26 25h1v1h-1zM29 25h2v1h-2zM2 26h1v1h-1zM4 26h3v1h-3zM8 26h1v1h-1zM11 26h1v1h-1zM15 26h1v1h-1zM18 26h1v1h-1zM21 26h7v1h-7zM2 27h1v1h-1zM4 27h3v1h-3zM8 27h1v1h-1zM13 27h2v1h-2zM17 27h1v1h-1zM20 27h1v1h-1zM23 27h1v1h-1zM26 27h4v1h-4zM2 28h1v1h-1zM4 28h3v1h-3zM8 28h1v1h-1zM10 28h3v1h-3zM15 28h6v1h-6zM22 28h1v1h-1zM26 28h1v1h-1zM29 28h2v1h-2zM2 29h1v1h-1zM8 29h1v1h-1zM12 29h1v1h-1zM14 29h3v1h-3zM21 29h2v1h-2zM27 29h1v1h-1zM2 30h7v1h-7zM10 30h3v1h-3zM14 30h1v1h-1zM16 30h2v1h-2zM22 30h3v1h-3zM27 30h1v1h-1zM30 30h1v1h-1z" fill="#2A1810"/></svg>